<svg xmlns="http://www.w3.org/2000/svg" contentScriptType="text/ecmascript" width="500" viewBox="0 0 375 375" height="500" version="1.2"><defs><clipPath id="a"><path d="M39.344 60H233v228H39.344Zm0 0"/></clipPath><clipPath id="b"><path d="M159 218h87v110.379h-87Zm0 0"/></clipPath><clipPath id="c"><path d="M142 86h193.594v229H142Zm0 0"/></clipPath><clipPath id="d"><path d="M129 46.379h87V157h-87Zm0 0"/></clipPath></defs><path style="fill:#fff;fill-opacity:1;stroke:none" d="M0 0h375v375H0z"/><path style="fill:#fff;fill-opacity:1;stroke:none" d="M0 0h375v375H0z"/><path style="fill:#242f37;fill-opacity:1;stroke:none" d="M0 0h375v375H0z"/><g clip-path="url(#a)"><path style="stroke:none;fill-rule:nonzero;fill:#41a1d9;fill-opacity:1" d="M195.93 256.66a92.877 92.877 0 0 1-41.82 9.902c-51.493 0-93.227-41.714-93.227-93.167 0-45.711 32.945-83.708 76.394-91.63V60.25c-55.234 8.133-97.629 55.684-97.629 113.14 0 63.176 51.25 114.391 114.461 114.391 30.364 0 57.946-11.84 78.434-31.12H195.93"/></g><g clip-path="url(#b)"><path style="stroke:none;fill-rule:nonzero;fill:#41a1d9;fill-opacity:1" d="m159.574 218.094 85.551 24.797-24.805 85.5Zm0 0"/></g><g clip-path="url(#c)"><path style="stroke:none;fill-rule:nonzero;fill:#41a1d9;fill-opacity:1" d="M179.004 118.102a92.909 92.909 0 0 1 41.824-9.907c51.492 0 93.227 41.715 93.227 93.172 0 45.711-32.946 83.703-76.399 91.63v21.519c55.239-8.137 97.633-55.692 97.633-113.145 0-63.18-51.246-114.39-114.46-114.39-30.368 0-57.95 11.84-78.442 31.12h36.617"/></g><g clip-path="url(#d)"><path style="stroke:none;fill-rule:nonzero;fill:#41a1d9;fill-opacity:1" d="m215.363 156.664-85.562-24.793 24.812-85.5Zm0 0"/></g></svg>