<?xml version="1.0" encoding="UTF-8"?><svg xmlns="http://www.w3.org/2000/svg" xmlns:xlink="http://www.w3.org/1999/xlink" contentScriptType="text/ecmascript" width="375pt" zoomAndPan="magnify" contentStyleType="text/css" viewBox="0 0 375 374.999991" height="374.999991pt" preserveAspectRatio="xMidYMid meet" version="1.2"><defs><clipPath xml:id="clip1" id="clip1"><path d="M 39.34375 60 L 233 60 L 233 288 L 39.34375 288 Z M 39.34375 60 "/></clipPath><clipPath xml:id="clip2" id="clip2"><path d="M 159 218 L 246 218 L 246 328.378906 L 159 328.378906 Z M 159 218 "/></clipPath><clipPath xml:id="clip3" id="clip3"><path d="M 142 86 L 335.59375 86 L 335.59375 315 L 142 315 Z M 142 86 "/></clipPath><clipPath xml:id="clip4" id="clip4"><path d="M 129 46.378906 L 216 46.378906 L 216 157 L 129 157 Z M 129 46.378906 "/></clipPath></defs><g xml:id="surface1" id="surface1"><rect x="0" width="375" y="0" height="374.999991" style="fill:rgb(100%,100%,100%);fill-opacity:1;stroke:none;"/><rect x="0" width="375" y="0" height="374.999991" style="fill:rgb(100%,100%,100%);fill-opacity:1;stroke:none;"/><rect x="0" width="375" y="0" height="374.999991" style="fill:rgb(14.118958%,18.429565%,21.569824%);fill-opacity:1;stroke:none;"/><g clip-rule="nonzero" clip-path="url(#clip1)"><path style=" stroke:none;fill-rule:nonzero;fill:rgb(25.489807%,63.139343%,85.099792%);fill-opacity:1;" d="M 195.929688 256.660156 C 183.347656 262.980469 169.15625 266.5625 154.109375 266.5625 C 102.617188 266.5625 60.882812 224.847656 60.882812 173.394531 C 60.882812 127.683594 93.828125 89.6875 137.277344 81.765625 L 137.277344 60.25 C 82.042969 68.382812 39.648438 115.933594 39.648438 173.390625 C 39.648438 236.566406 90.898438 287.78125 154.109375 287.78125 C 184.472656 287.78125 212.054688 275.941406 232.542969 256.660156 L 195.929688 256.660156 "/></g><g clip-rule="nonzero" clip-path="url(#clip2)"><path style=" stroke:none;fill-rule:nonzero;fill:rgb(25.489807%,63.139343%,85.099792%);fill-opacity:1;" d="M 159.574219 218.09375 L 245.125 242.890625 L 220.320312 328.390625 Z M 159.574219 218.09375 "/></g><g clip-rule="nonzero" clip-path="url(#clip3)"><path style=" stroke:none;fill-rule:nonzero;fill:rgb(25.489807%,63.139343%,85.099792%);fill-opacity:1;" d="M 179.003906 118.101562 C 191.585938 111.78125 205.785156 108.195312 220.828125 108.195312 C 272.320312 108.195312 314.054688 149.910156 314.054688 201.367188 C 314.054688 247.078125 281.109375 285.070312 237.65625 292.996094 L 237.65625 314.515625 C 292.894531 306.378906 335.289062 258.824219 335.289062 201.371094 C 335.289062 138.191406 284.042969 86.980469 220.828125 86.980469 C 190.460938 86.980469 162.878906 98.820312 142.386719 118.101562 L 179.003906 118.101562 "/></g><g clip-rule="nonzero" clip-path="url(#clip4)"><path style=" stroke:none;fill-rule:nonzero;fill:rgb(25.489807%,63.139343%,85.099792%);fill-opacity:1;" d="M 215.363281 156.664062 L 129.800781 131.871094 L 154.613281 46.371094 Z M 215.363281 156.664062 "/></g></g></svg>